<?xml version="1.0" encoding="UTF-8" standalone="no"?>
<svg id="Layer_1" xmlns:rdf="http://www.w3.org/1999/02/22-rdf-syntax-ns#" xmlns="http://www.w3.org/2000/svg" enable-background="new 0 0 512 512" xml:space="preserve" height="206" viewBox="0 0 206 206" width="206" version="1.1" y="0px" x="0px" xmlns:cc="http://creativecommons.org/ns#" xmlns:dc="http://purl.org/dc/elements/1.1/"><metadata id="metadata9"><rdf:RDF><cc:Work rdf:about=""><dc:format>image/svg+xml</dc:format><dc:type rdf:resource="http://purl.org/dc/dcmitype/StillImage"/><dc:title/></cc:Work></rdf:RDF></metadata><g id="g3355" transform="matrix(.5 0 0 .5 -44.17 -34.625)"><g id="g3389" transform="translate(1.3978 -7.8821)"><circle id="path3369" cy="283.13" cx="292.94" r="200" fill="#f9f9f9"/><path id="path3" d="m324.03 295.01c4.941-4.8474 6.658-17.108 11.181-21.527 6.4065-6.2609 13.36-13.967 15.327-23.587 2.6398-12.784-2.7211-14.407-2.7211-18.824 0-9.2557-0.0842-24.458-2.9743-34.332-0.16609-13.024-2.303-18.689-6.7849-23.567-4.2281-4.565-14.615-3.4866-20.04-6.4919-8.3949-4.6591-15.294-6.4288-24.101-6.6586v-0.0521c-0.26082 0-0.51229 0.031-0.77311 0.031-0.42983 0-0.83861-0.031-1.2889-0.031l0.0216 0.0831c-21.453 0.80644-44.277 14.333-52.119 36.089-2.91 8.0615-1.8012 25.672-1.8012 34.928 0 4.4182-5.3603 6.0404-2.7211 18.824 1.9778 9.6206 8.9206 17.327 15.327 23.587 4.524 4.4188 6.2404 16.679 11.171 21.527 1.0784 7.1404 1.2041 5.0989 1.1626 11.632-0.0111 2.2088 0.0626 5.6328-3.465 9.0036-6.6697 6.3866-21.987 20.238-34.551 25.63-16.562 7.1089-43.492 18.48-49.7 21.683-6.2077 3.203-22.593 11.883-22.593 17.411v25.924h138.77 3.1737 138.77v-25.924c0-5.5276-16.374-14.208-22.595-17.411-6.2182-3.2036-33.125-14.574-49.688-21.683-12.229-5.2451-27.075-18.521-34.007-25.106-2.3445-2.2193-3.9989-4.5445-4.0205-10.198-0.0403-6.5744 0.12749-4.062 1.1737-10.962" fill-rule="evenodd" clip-rule="evenodd" fill="#4d4d4d"/><path id="circle3371" opacity=".2" transform="rotate(-90)" d="m-83.132 292.94a200 200 0 0 1 -100 173.21 200 200 0 0 1 -200 0 200 200 0 0 1 -100 -173.21l200 0.00001z"/></g></g></svg>
