<?xml version="1.0" encoding="UTF-8" standalone="no"?>
<svg
   xmlns:dc="http://purl.org/dc/elements/1.1/"
   xmlns:cc="http://creativecommons.org/ns#"
   xmlns:rdf="http://www.w3.org/1999/02/22-rdf-syntax-ns#"
   xmlns:svg="http://www.w3.org/2000/svg"
   xmlns="http://www.w3.org/2000/svg"
   xmlns:xlink="http://www.w3.org/1999/xlink"
   width="64"
   height="64"
   viewBox="0 0 64.000001 64.000001"
   id="svg2"
   version="1.1">
  <defs
     id="defs4">
    <linearGradient
       id="linearGradient16908">
      <stop
         style="stop-color:#263238;stop-opacity:1;"
         offset="0"
         id="stop16910" />
      <stop
         style="stop-color:#263238;stop-opacity:0;"
         offset="1"
         id="stop16912" />
    </linearGradient>
    <symbol
       id="github-alt"
       class="Brand-Icons">
      <title
         id="title13153">GitHub Alt</title>
      <path
         transform="matrix(0.05,0,0,-0.05,0,76.8)"
         d="M640 320q0 -40 -12.5 -82t-43 -76t-72.5 -34t-72.5 34t-43 76t-12.5 82t12.5 82t43 76t72.5 34t72.5 -34t43 -76t12.5 -82zM1280 320q0 -40 -12.5 -82t-43 -76t-72.5 -34t-72.5 34t-43 76t-12.5 82t12.5 82t43 76t72.5 34t72.5 -34t43 -76t12.5 -82zM1440 320 q0 120 -69 204t-187 84q-41 0 -195 -21q-71 -11 -157 -11t-157 11q-152 21 -195 21q-118 0 -187 -84t-69 -204q0 -88 32 -153.5t81 -103t122 -60t140 -29.5t149 -7h168q82 0 149 7t140 29.5t122 60t81 103t32 153.5zM1664 496q0 -207 -61 -331q-38 -77 -105.5 -133t-141 -86 t-170 -47.5t-171.5 -22t-167 -4.5q-78 0 -142 3t-147.5 12.5t-152.5 30t-137 51.5t-121 81t-86 115q-62 123 -62 331q0 237 136 396q-27 82 -27 170q0 116 51 218q108 0 190 -39.5t189 -123.5q147 35 309 35q148 0 280 -32q105 82 187 121t189 39q51 -102 51 -218 q0 -87 -27 -168q136 -160 136 -398z"
         id="path13155" />
    </symbol>
    <linearGradient
       xlink:href="#linearGradient16908"
       id="linearGradient16914"
       x1="18.871094"
       y1="1007.0209"
       x2="54.852539"
       y2="1045.0209"
       gradientUnits="userSpaceOnUse"
       gradientTransform="matrix(0.93656717,0,0,0.93656717,2.0298507,64.724469)" />
    <filter
       style="color-interpolation-filters:sRGB;"
       id="filter3921">
      <feFlood
         flood-opacity="0.498039"
         flood-color="rgb(0,0,0)"
         result="flood"
         id="feFlood3923" />
      <feComposite
         in="flood"
         in2="SourceGraphic"
         operator="out"
         result="composite1"
         id="feComposite3925" />
      <feGaussianBlur
         in="composite1"
         stdDeviation="2"
         result="blur"
         id="feGaussianBlur3927" />
      <feOffset
         dx="0"
         dy="0"
         result="offset"
         id="feOffset3929" />
      <feComposite
         in="offset"
         in2="SourceGraphic"
         operator="atop"
         result="composite2"
         id="feComposite3931" />
    </filter>
  </defs>
  <metadata
     id="metadata7">
    <rdf:RDF>
      <cc:Work
         rdf:about="">
        <dc:format>image/svg+xml</dc:format>
        <dc:type
           rdf:resource="http://purl.org/dc/dcmitype/StillImage" />
        <dc:title></dc:title>
      </cc:Work>
    </rdf:RDF>
  </metadata>
  <g
     id="layer1"
     transform="translate(0,-988.36216)">
    <g
       id="g3939">
      <circle
         r="31.375"
         style="opacity:1;fill:#263238;fill-opacity:1;fill-rule:nonzero;stroke:none;stroke-width:0.30000001;stroke-miterlimit:4;stroke-dasharray:none;stroke-opacity:1"
         id="circle3345"
         cx="32"
         cy="1020.3622" />
      <circle
         r="29.304697"
         cy="1020.3622"
         cx="32"
         id="path3336"
         style="opacity:1;fill:#81c784;fill-opacity:1;fill-rule:nonzero;stroke:none;stroke-width:0.30000001;stroke-miterlimit:4;stroke-dasharray:none;stroke-opacity:1;filter:url(#filter3921)" />
    </g>
    <g
       id="g3935">
      <use
         style="fill:#263238"
         height="100%"
         width="100%"
         y="0"
         x="0"
         transform="matrix(0.36528371,0,0,0.36528371,16.804198,1002.8285)"
         xlink:href="#github-alt"
         id="use16088" />
      <path
         id="path16106"
         d="m 44.446099,1007.6801 0.4317,20.5258 -7.726679,4.5658 -12.175374,-1.0537 -5.740132,-2.0267 19.217919,19.2179 a 29.304696,29.304696 0 0 0 22.559928,-24.6617 l -16.567362,-16.5674 z"
         style="fill:url(#linearGradient16914);fill-opacity:1;fill-rule:evenodd;stroke:none;stroke-width:1px;stroke-linecap:butt;stroke-linejoin:miter;stroke-opacity:1" />
    </g>
  </g>
</svg>
