<?xml version="1.0" encoding="UTF-8" standalone="no"?>
<svg
   xmlns:dc="http://purl.org/dc/elements/1.1/"
   xmlns:cc="http://creativecommons.org/ns#"
   xmlns:rdf="http://www.w3.org/1999/02/22-rdf-syntax-ns#"
   xmlns:svg="http://www.w3.org/2000/svg"
   xmlns="http://www.w3.org/2000/svg"
   xmlns:xlink="http://www.w3.org/1999/xlink"
   version="1.1"
   id="svg3352"
   viewBox="0 0 63.999999 63.999999"
   height="64"
   width="64">
  <defs
     id="defs3354">
    <linearGradient
       id="linearGradient4466">
      <stop
         id="stop4468"
         offset="0"
         style="stop-color:#263238;stop-opacity:1;" />
      <stop
         id="stop4470"
         offset="1"
         style="stop-color:#263238;stop-opacity:0;" />
    </linearGradient>
    <linearGradient
       id="linearGradient4440">
      <stop
         id="stop4442"
         offset="0"
         style="stop-color:#263238;stop-opacity:1;" />
      <stop
         id="stop4444"
         offset="1"
         style="stop-color:#263238;stop-opacity:0;" />
    </linearGradient>
    <filter
       style="color-interpolation-filters:sRGB"
       id="filter3921">
      <feFlood
         flood-opacity="0.498039"
         flood-color="rgb(0,0,0)"
         result="flood"
         id="feFlood3923" />
      <feComposite
         in="flood"
         in2="SourceGraphic"
         operator="out"
         result="composite1"
         id="feComposite3925" />
      <feGaussianBlur
         in="composite1"
         stdDeviation="2"
         result="blur"
         id="feGaussianBlur3927" />
      <feOffset
         dx="0"
         dy="0"
         result="offset"
         id="feOffset3929" />
      <feComposite
         in="offset"
         in2="SourceGraphic"
         operator="atop"
         result="composite2"
         id="feComposite3931" />
    </filter>
    <linearGradient
       xlink:href="#linearGradient16908"
       id="linearGradient16914"
       x1="18.871094"
       y1="1007.0209"
       x2="54.852539"
       y2="1045.0209"
       gradientUnits="userSpaceOnUse"
       gradientTransform="matrix(0.93656717,0,0,0.93656717,2.0298507,64.724469)" />
    <linearGradient
       id="linearGradient16908">
      <stop
         style="stop-color:#263238;stop-opacity:1;"
         offset="0"
         id="stop16910" />
      <stop
         style="stop-color:#263238;stop-opacity:0;"
         offset="1"
         id="stop16912" />
    </linearGradient>
    <filter
       style="color-interpolation-filters:sRGB"
       id="filter3921-6">
      <feFlood
         flood-opacity="0.498039"
         flood-color="rgb(0,0,0)"
         result="flood"
         id="feFlood3923-7" />
      <feComposite
         in="flood"
         in2="SourceGraphic"
         operator="out"
         result="composite1"
         id="feComposite3925-5" />
      <feGaussianBlur
         in="composite1"
         stdDeviation="2"
         result="blur"
         id="feGaussianBlur3927-3" />
      <feOffset
         dx="0"
         dy="0"
         result="offset"
         id="feOffset3929-5" />
      <feComposite
         in="offset"
         in2="SourceGraphic"
         operator="atop"
         result="composite2"
         id="feComposite3931-6" />
    </filter>
    <linearGradient
       gradientUnits="userSpaceOnUse"
       y2="1043.5811"
       x2="55.966797"
       y1="1013.9561"
       x1="25.002087"
       id="linearGradient4446"
       xlink:href="#linearGradient4440" />
    <clipPath
       id="clipPath4454"
       clipPathUnits="userSpaceOnUse">
      <g
         id="g4456"
         transform="translate(0.05392504,-3.7156823)">
        <circle
           r="31.375"
           style="opacity:1;fill:#263238;fill-opacity:1;fill-rule:nonzero;stroke:none;stroke-width:0.30000001;stroke-miterlimit:4;stroke-dasharray:none;stroke-opacity:1"
           id="circle4458"
           cx="31.946074"
           cy="1024.0779" />
        <circle
           r="29.304697"
           cy="1024.0779"
           cx="31.946074"
           id="circle4460"
           style="opacity:1;fill:#546e7a;fill-opacity:1;fill-rule:nonzero;stroke:none;stroke-width:0.30000001;stroke-miterlimit:4;stroke-dasharray:none;stroke-opacity:1;filter:url(#filter3921)" />
      </g>
    </clipPath>
    <linearGradient
       gradientUnits="userSpaceOnUse"
       y2="1039.6399"
       x2="48.922951"
       y1="1015.775"
       x1="21.378931"
       id="linearGradient4472"
       xlink:href="#linearGradient4466" />
  </defs>
  <metadata
     id="metadata3357">
    <rdf:RDF>
      <cc:Work
         rdf:about="">
        <dc:format>image/svg+xml</dc:format>
        <dc:type
           rdf:resource="http://purl.org/dc/dcmitype/StillImage" />
        <dc:title></dc:title>
      </cc:Work>
    </rdf:RDF>
  </metadata>
  <g
     transform="translate(0,-988.3622)"
     id="layer1">
    <g
       id="g4599">
      <g
         id="g3492"
         transform="translate(0.05392504,-3.7156823)">
        <circle
           r="31.375"
           style="opacity:1;fill:#263238;fill-opacity:1;fill-rule:nonzero;stroke:none;stroke-width:0.30000001;stroke-miterlimit:4;stroke-dasharray:none;stroke-opacity:1"
           id="circle3345"
           cx="31.946074"
           cy="1024.0779" />
        <circle
           r="29.304697"
           cy="1024.0779"
           cx="31.946074"
           id="path3336"
           style="opacity:1;fill:#546e7a;fill-opacity:1;fill-rule:nonzero;stroke:none;stroke-width:0.30000001;stroke-miterlimit:4;stroke-dasharray:none;stroke-opacity:1;filter:url(#filter3921)" />
      </g>
      <path
         style="fill:url(#linearGradient4472);fill-rule:evenodd;stroke:none;stroke-width:1px;stroke-linecap:butt;stroke-linejoin:miter;stroke-opacity:1;fill-opacity:1"
         d="m 20.40666,1024.0006 28.195883,28.1959 15.16965,-15.1697 -20.903844,-20.9038 -0.441942,7.6014 -10.253049,6.8943 z"
         id="path4464" />
      <g
         id="g3593"
         transform="matrix(0.0733639,0,0,0.0733639,13.659025,1002.0212)"
         style="fill:#263238">
        <path
           d="M 250.001,0 C 111.927,0 0,111.927 0,250.001 0,388.077 111.927,500 250.001,500 388.073,500 500,388.077 500,250.001 500,111.927 388.073,0 250.001,0 Z m 0,458.943 C 134.789,458.943 41.06,365.21 41.06,250.001 41.06,134.793 134.789,41.06 250.001,41.06 c 115.208,0 208.938,93.733 208.938,208.941 0,115.209 -93.729,208.942 -208.938,208.942 z"
           id="path3595"
           style="fill:#263238" />
        <path
           d="m 404.462,201.172 c -0.028,-0.195 -0.076,-0.382 -0.109,-0.577 -0.065,-0.374 -0.135,-0.748 -0.232,-1.114 -0.057,-0.22 -0.138,-0.431 -0.206,-0.642 -0.106,-0.326 -0.212,-0.651 -0.342,-0.968 -0.091,-0.22 -0.196,-0.439 -0.297,-0.651 -0.14,-0.3 -0.285,-0.593 -0.452,-0.877 -0.122,-0.212 -0.251,-0.416 -0.377,-0.618 -0.18,-0.277 -0.362,-0.546 -0.562,-0.806 -0.146,-0.194 -0.3,-0.39 -0.454,-0.577 -0.212,-0.243 -0.432,-0.487 -0.664,-0.716 -0.174,-0.178 -0.346,-0.357 -0.528,-0.521 -0.244,-0.219 -0.496,-0.431 -0.752,-0.633 -0.198,-0.155 -0.395,-0.31 -0.602,-0.456 -0.078,-0.049 -0.146,-0.114 -0.22,-0.163 L 257.369,97.656 c -4.464,-2.976 -10.274,-2.976 -14.738,0 l -141.295,94.196 c -0.073,0.049 -0.142,0.114 -0.219,0.163 -0.208,0.146 -0.403,0.301 -0.598,0.456 -0.26,0.203 -0.512,0.415 -0.752,0.633 -0.187,0.164 -0.357,0.342 -0.533,0.521 -0.231,0.229 -0.451,0.473 -0.658,0.716 -0.159,0.188 -0.313,0.383 -0.459,0.577 -0.195,0.26 -0.383,0.529 -0.557,0.806 -0.134,0.203 -0.26,0.406 -0.382,0.618 -0.163,0.284 -0.309,0.577 -0.451,0.877 -0.102,0.211 -0.208,0.431 -0.297,0.651 -0.13,0.317 -0.236,0.642 -0.341,0.968 -0.07,0.211 -0.146,0.422 -0.208,0.642 -0.097,0.366 -0.162,0.74 -0.231,1.114 -0.032,0.195 -0.081,0.382 -0.106,0.577 -0.077,0.569 -0.122,1.146 -0.122,1.732 l 0,94.197 c 0,0.585 0.044,1.162 0.122,1.74 0.025,0.188 0.074,0.382 0.106,0.568 0.069,0.374 0.134,0.748 0.231,1.114 0.062,0.22 0.138,0.432 0.208,0.643 0.105,0.324 0.211,0.65 0.341,0.975 0.089,0.222 0.195,0.433 0.297,0.645 0.143,0.3 0.289,0.592 0.451,0.885 0.122,0.204 0.248,0.406 0.382,0.61 0.174,0.276 0.362,0.545 0.557,0.806 0.146,0.203 0.301,0.391 0.459,0.577 0.208,0.243 0.427,0.488 0.658,0.716 0.175,0.178 0.346,0.357 0.533,0.52 0.24,0.221 0.492,0.432 0.752,0.635 0.195,0.155 0.391,0.31 0.598,0.454 0.077,0.05 0.146,0.115 0.219,0.163 l 141.295,94.197 c 2.231,1.487 4.802,2.236 7.371,2.236 2.566,0 5.135,-0.749 7.368,-2.236 l 141.295,-94.197 c 0.074,-0.048 0.142,-0.113 0.22,-0.163 0.207,-0.145 0.403,-0.299 0.602,-0.454 0.256,-0.203 0.508,-0.414 0.752,-0.635 0.183,-0.162 0.354,-0.342 0.528,-0.52 0.232,-0.228 0.452,-0.473 0.664,-0.716 0.154,-0.187 0.308,-0.374 0.454,-0.577 0.2,-0.261 0.383,-0.529 0.562,-0.806 0.126,-0.204 0.255,-0.406 0.377,-0.61 0.167,-0.293 0.312,-0.585 0.452,-0.885 0.101,-0.212 0.206,-0.423 0.297,-0.645 0.13,-0.324 0.235,-0.65 0.342,-0.975 0.068,-0.211 0.149,-0.423 0.206,-0.643 0.098,-0.366 0.167,-0.74 0.232,-1.114 0.033,-0.187 0.081,-0.381 0.109,-0.568 0.073,-0.578 0.119,-1.155 0.119,-1.74 l 0,-94.197 c 0,-0.585 -0.046,-1.162 -0.119,-1.731 z m -141.176,-67.639 104.088,69.387 -46.493,31.103 -57.595,-38.527 0,-61.963 z m -26.571,0 0,61.963 -57.592,38.527 -46.497,-31.103 104.089,-69.387 z m -114.725,94.238 33.238,22.231 -33.238,22.233 0,-44.464 z m 114.725,138.7 -104.088,-69.388 46.497,-31.094 57.592,38.52 0,61.962 z m 13.286,-85.04 -46.988,-31.429 46.988,-31.428 46.985,31.428 -46.985,31.429 z m 13.285,85.04 0,-61.962 57.595,-38.52 46.493,31.094 -104.088,69.388 z m 114.724,-94.237 -33.233,-22.233 33.233,-22.231 0,44.464 z"
           id="path3597"
           style="fill:#263238" />
      </g>
      <path
         style="fill:url(#linearGradient4446);fill-rule:evenodd;stroke:none;stroke-width:1px;stroke-linecap:butt;stroke-linejoin:miter;stroke-opacity:1;fill-opacity:1"
         d="m 19.252087,1033.5481 36.781002,36.781 25.933708,-25.9337 -37.3125,-37.3125 4.136071,14.9621 -4.665368,10.9422 -10.428365,4.3034 z"
         id="path3638"
         clip-path="url(#clipPath4454)" />
    </g>
  </g>
</svg>
